<svg width="54" height="54" viewBox="0 0 54 54" fill="none" xmlns="http://www.w3.org/2000/svg">
<path d="M29.4153 12.4614C29.4153 11.3569 28.5199 10.4614 27.4153 10.4614C26.3107 10.4614 25.4153 11.3569 25.4153 12.4614L29.4153 12.4614ZM26.0011 42.9526C26.7821 43.7336 28.0484 43.7336 28.8295 42.9526L41.5574 30.2246C42.3385 29.4436 42.3385 28.1773 41.5574 27.3962C40.7764 26.6152 39.51 26.6152 38.729 27.3962L27.4153 38.7099L16.1016 27.3962C15.3205 26.6152 14.0542 26.6152 13.2731 27.3962C12.4921 28.1773 12.4921 29.4436 13.2731 30.2246L26.0011 42.9526ZM25.4153 12.4614L25.4153 41.5383L29.4153 41.5383L29.4153 12.4614L25.4153 12.4614Z" fill="black"/>
<circle cx="27" cy="27" r="25" stroke="black" stroke-width="4"/>
</svg>
