<svg width="564" height="350" viewBox="0 0 564 350" fill="none" xmlns="http://www.w3.org/2000/svg">
<path d="M244 56.0957H275.808C293.376 56.0957 307.617 70.3368 307.617 87.904V119.712H275.808C258.241 119.712 244 105.471 244 87.904V56.0957Z" fill="url(#paint0_linear)"/>
<path d="M244 199.232L244 167.426C244 149.858 258.242 135.616 275.81 135.616L307.617 135.616L307.617 167.422C307.617 184.991 293.375 199.232 275.807 199.232L244 199.232Z" fill="url(#paint1_linear)"/>
<path d="M387.136 56.0957L387.136 87.9023C387.136 105.47 372.894 119.712 355.326 119.712L323.519 119.712L323.519 87.9057C323.519 70.3375 337.761 56.0957 355.329 56.0957L387.136 56.0957Z" fill="url(#paint2_linear)"/>
<path d="M450.616 249.712L418.81 249.712C401.241 249.712 387 235.47 387 217.902L387 186.095L418.806 186.095C436.374 186.095 450.616 200.337 450.616 217.905L450.616 249.712Z" fill="url(#paint3_linear)"/>
<circle r="11.9281" transform="matrix(-1 1.74846e-07 1.74846e-07 1 551.928 293.024)" fill="url(#paint4_linear)"/>
<path d="M124 221.863L179.664 277.527H124V221.863Z" fill="url(#paint5_linear)"/>
<path d="M539.665 55.7598L515.809 31.9036L515.809 55.7598L539.665 55.7598Z" fill="url(#paint6_linear)"/>
<path d="M507.856 23.9522L484 0.0959339L484 23.9521L507.856 23.9522Z" fill="url(#paint7_linear)"/>
<circle r="11.9281" transform="matrix(-1 1.74846e-07 1.74846e-07 1 81.9069 11.9281)" fill="url(#paint8_linear)"/>
<circle cx="223.401" cy="321.264" r="27.8322" fill="url(#paint9_linear)"/>
<rect width="55.6645" height="55.6645" transform="matrix(1 -8.74228e-08 -8.74228e-08 -1 0 91.4492)" fill="url(#paint10_linear)"/>
<defs>
<linearGradient id="paint0_linear" x1="254.603" y1="61.6622" x2="297.544" y2="114.146" gradientUnits="userSpaceOnUse">
<stop stop-color="#3FE0E0"/>
<stop offset="1" stop-color="#0D99B7"/>
</linearGradient>
<linearGradient id="paint1_linear" x1="249.566" y1="188.63" x2="302.05" y2="145.688" gradientUnits="userSpaceOnUse">
<stop stop-color="#3FE0E0"/>
<stop offset="1" stop-color="#0D99B7"/>
</linearGradient>
<linearGradient id="paint2_linear" x1="381.569" y1="66.6985" x2="329.086" y2="109.64" gradientUnits="userSpaceOnUse">
<stop stop-color="#3FE0E0"/>
<stop offset="1" stop-color="#0D99B7"/>
</linearGradient>
<linearGradient id="paint3_linear" x1="443.062" y1="244.145" x2="396.542" y2="196.035" gradientUnits="userSpaceOnUse">
<stop stop-color="#FAD96A"/>
<stop offset="0.520833" stop-color="#F3B738"/>
<stop offset="1" stop-color="#EB9100"/>
</linearGradient>
<linearGradient id="paint4_linear" x1="-1.29465e-07" y1="11.9281" x2="23.8562" y2="11.9281" gradientUnits="userSpaceOnUse">
<stop stop-color="#11759B"/>
<stop offset="1" stop-color="#063042"/>
</linearGradient>
<linearGradient id="paint5_linear" x1="179.664" y1="249.695" x2="124" y2="249.695" gradientUnits="userSpaceOnUse">
<stop stop-color="#11759B"/>
<stop offset="1" stop-color="#063042"/>
</linearGradient>
<linearGradient id="paint6_linear" x1="515.809" y1="43.8317" x2="539.665" y2="43.8317" gradientUnits="userSpaceOnUse">
<stop stop-color="#11759B"/>
<stop offset="1" stop-color="#063042"/>
</linearGradient>
<linearGradient id="paint7_linear" x1="484" y1="12.024" x2="507.856" y2="12.024" gradientUnits="userSpaceOnUse">
<stop stop-color="#11759B"/>
<stop offset="1" stop-color="#063042"/>
</linearGradient>
<linearGradient id="paint8_linear" x1="-1.29465e-07" y1="11.9281" x2="23.8562" y2="11.9281" gradientUnits="userSpaceOnUse">
<stop stop-color="#11759B"/>
<stop offset="1" stop-color="#063042"/>
</linearGradient>
<linearGradient id="paint9_linear" x1="195.568" y1="321.264" x2="251.233" y2="321.264" gradientUnits="userSpaceOnUse">
<stop stop-color="#11759B"/>
<stop offset="1" stop-color="#063042"/>
</linearGradient>
<linearGradient id="paint10_linear" x1="-3.02085e-07" y1="27.8322" x2="55.6645" y2="27.8322" gradientUnits="userSpaceOnUse">
<stop stop-color="#11759B"/>
<stop offset="1" stop-color="#063042"/>
</linearGradient>
</defs>
</svg>
