<svg width="689" height="459" viewBox="0 0 689 459" fill="none" xmlns="http://www.w3.org/2000/svg">
<path d="M250 83H290C312.091 83 330 100.909 330 123V163H290C267.909 163 250 145.091 250 123V83Z" fill="url(#paint0_linear)"/>
<path d="M250 263L250 223C250 200.909 267.909 183 290 183L330 183L330 223C330 245.091 312.091 263 290 263L250 263Z" fill="url(#paint1_linear)"/>
<path d="M430 83L430 123C430 145.091 412.091 163 390 163L350 163L350 123C350 100.909 367.909 83 390 83L430 83Z" fill="url(#paint2_linear)"/>
<path d="M510 315L470 315C447.909 315 430 297.091 430 275L430 235L470 235C492.091 235 510 252.909 510 275L510 315Z" fill="url(#paint3_linear)"/>
<circle r="15" transform="matrix(-1 1.74846e-07 1.74846e-07 1 625 389)" fill="url(#paint4_linear)"/>
<path d="M104 299L174 369H104V299Z" fill="url(#paint5_linear)"/>
<path d="M625 70L595 40L595 70L625 70Z" fill="url(#paint6_linear)"/>
<path d="M585 30L555 -5.72205e-06L555 30L585 30Z" fill="url(#paint7_linear)"/>
<circle r="15" transform="matrix(-1 1.74846e-07 1.74846e-07 1 95 35)" fill="url(#paint8_linear)"/>
<circle cx="229" cy="424" r="35" fill="url(#paint9_linear)"/>
<rect width="70" height="70" transform="matrix(1 -8.74228e-08 -8.74228e-08 -1 -8 135)" fill="url(#paint10_linear)"/>
<defs>
<linearGradient id="paint0_linear" x1="263.333" y1="90" x2="317.333" y2="156" gradientUnits="userSpaceOnUse">
<stop stop-color="#3FE0E0"/>
<stop offset="1" stop-color="#0D99B7"/>
</linearGradient>
<linearGradient id="paint1_linear" x1="257" y1="249.667" x2="323" y2="195.667" gradientUnits="userSpaceOnUse">
<stop stop-color="#3FE0E0"/>
<stop offset="1" stop-color="#0D99B7"/>
</linearGradient>
<linearGradient id="paint2_linear" x1="423" y1="96.3333" x2="357" y2="150.333" gradientUnits="userSpaceOnUse">
<stop stop-color="#3FE0E0"/>
<stop offset="1" stop-color="#0D99B7"/>
</linearGradient>
<linearGradient id="paint3_linear" x1="500.5" y1="308" x2="442" y2="247.5" gradientUnits="userSpaceOnUse">
<stop stop-color="#FAD96A"/>
<stop offset="0.520833" stop-color="#F3B738"/>
<stop offset="1" stop-color="#EB9100"/>
</linearGradient>
<linearGradient id="paint4_linear" x1="-1.62807e-07" y1="15" x2="30" y2="15" gradientUnits="userSpaceOnUse">
<stop stop-color="#11759B"/>
<stop offset="1" stop-color="#063042"/>
</linearGradient>
<linearGradient id="paint5_linear" x1="174" y1="334" x2="104" y2="334" gradientUnits="userSpaceOnUse">
<stop stop-color="#11759B"/>
<stop offset="1" stop-color="#063042"/>
</linearGradient>
<linearGradient id="paint6_linear" x1="595" y1="55" x2="625" y2="55" gradientUnits="userSpaceOnUse">
<stop stop-color="#11759B"/>
<stop offset="1" stop-color="#063042"/>
</linearGradient>
<linearGradient id="paint7_linear" x1="555" y1="15" x2="585" y2="15" gradientUnits="userSpaceOnUse">
<stop stop-color="#11759B"/>
<stop offset="1" stop-color="#063042"/>
</linearGradient>
<linearGradient id="paint8_linear" x1="-1.62807e-07" y1="15" x2="30" y2="15" gradientUnits="userSpaceOnUse">
<stop stop-color="#11759B"/>
<stop offset="1" stop-color="#063042"/>
</linearGradient>
<linearGradient id="paint9_linear" x1="194" y1="424" x2="264" y2="424" gradientUnits="userSpaceOnUse">
<stop stop-color="#11759B"/>
<stop offset="1" stop-color="#063042"/>
</linearGradient>
<linearGradient id="paint10_linear" x1="-3.79882e-07" y1="35" x2="70" y2="35" gradientUnits="userSpaceOnUse">
<stop stop-color="#11759B"/>
<stop offset="1" stop-color="#063042"/>
</linearGradient>
</defs>
</svg>
