<svg width="297" height="627" viewBox="0 0 297 627" fill="none" xmlns="http://www.w3.org/2000/svg">
<path d="M0 0H265C276.046 0 285 8.9543 285 20V627H0V0Z" fill="#45D1DF"/>
<rect x="173.777" y="54.7637" width="37.2041" height="37.2041" fill="url(#paint0_linear)"/>
<path d="M169.643 96.1006L132.439 133.305L132.439 96.1006L169.643 96.1006Z" fill="url(#paint1_linear)"/>
<path d="M238.677 37.4014L226.276 25L238.677 25L238.677 37.4014Z" fill="url(#paint2_linear)"/>
<path d="M255.213 53.9375L242.811 41.5361L255.213 41.5361L255.213 53.9375Z" fill="url(#paint3_linear)"/>
<path d="M128.305 137.44L91.101 174.645L91.101 137.44L128.305 137.44Z" fill="url(#paint4_linear)"/>
<path d="M169.643 228.796L206.847 266L169.643 266L169.643 228.796Z" fill="url(#paint5_linear)"/>
<path d="M128.305 187.458L165.51 224.662L128.305 224.662L128.305 187.458Z" fill="url(#paint6_linear)"/>
<path d="M173.777 96.1006L210.981 133.305L173.777 133.305L173.777 96.1006Z" fill="url(#paint7_linear)"/>
<circle cx="38.6021" cy="195.726" r="18.6021" transform="rotate(-90 38.6021 195.726)" fill="url(#paint8_linear)"/>
<circle cx="257.693" cy="166.79" r="6.20069" transform="rotate(-90 257.693 166.79)" fill="url(#paint9_linear)"/>
<circle cx="84.9004" cy="243.266" r="6.20069" transform="rotate(-90 84.9004 243.266)" fill="url(#paint10_linear)"/>
<circle cx="54.3106" cy="37.4009" r="6.20069" transform="rotate(-90 54.3106 37.4009)" fill="url(#paint11_linear)"/>
<circle cx="207.201" cy="323.201" r="6.20069" transform="rotate(-90 207.201 323.201)" fill="url(#paint12_linear)"/>
<circle cx="87.3806" cy="73.3657" r="18.6021" fill="url(#paint13_linear)"/>
<circle cx="56.6021" cy="569.602" r="18.6021" fill="url(#paint14_linear)"/>
<circle cx="192.379" cy="195.726" r="18.6021" transform="rotate(-180 192.379 195.726)" fill="url(#paint15_linear)"/>
<path d="M297 517L260 554L297 554L297 517Z" fill="url(#paint16_linear)"/>
<path d="M255 559L218 596L255 596L255 559Z" fill="url(#paint17_linear)"/>
<defs>
<linearGradient id="paint0_linear" x1="173.777" y1="73.3657" x2="210.981" y2="73.3657" gradientUnits="userSpaceOnUse">
<stop stop-color="#11759B"/>
<stop offset="1" stop-color="#063042"/>
</linearGradient>
<linearGradient id="paint1_linear" x1="142.774" y1="128.344" x2="169.643" y2="108.089" gradientUnits="userSpaceOnUse">
<stop stop-color="#FAD96A"/>
<stop offset="0.520833" stop-color="#F3B738"/>
<stop offset="1" stop-color="#EB9100"/>
</linearGradient>
<linearGradient id="paint2_linear" x1="227.93" y1="28.4448" x2="234.681" y2="37.4014" gradientUnits="userSpaceOnUse">
<stop stop-color="#FAD96A"/>
<stop offset="0.520833" stop-color="#F3B738"/>
<stop offset="1" stop-color="#EB9100"/>
</linearGradient>
<linearGradient id="paint3_linear" x1="244.465" y1="44.981" x2="251.217" y2="53.9375" gradientUnits="userSpaceOnUse">
<stop stop-color="#FAD96A"/>
<stop offset="0.520833" stop-color="#F3B738"/>
<stop offset="1" stop-color="#EB9100"/>
</linearGradient>
<linearGradient id="paint4_linear" x1="128.305" y1="156.042" x2="91.101" y2="156.042" gradientUnits="userSpaceOnUse">
<stop stop-color="#11759B"/>
<stop offset="1" stop-color="#063042"/>
</linearGradient>
<linearGradient id="paint5_linear" x1="201.887" y1="255.666" x2="181.631" y2="228.796" gradientUnits="userSpaceOnUse">
<stop stop-color="#FAD96A"/>
<stop offset="0.520833" stop-color="#F3B738"/>
<stop offset="1" stop-color="#EB9100"/>
</linearGradient>
<linearGradient id="paint6_linear" x1="146.907" y1="187.458" x2="146.907" y2="224.662" gradientUnits="userSpaceOnUse">
<stop stop-color="#11759B"/>
<stop offset="1" stop-color="#063042"/>
</linearGradient>
<linearGradient id="paint7_linear" x1="192.379" y1="96.1006" x2="192.379" y2="133.305" gradientUnits="userSpaceOnUse">
<stop stop-color="#11759B"/>
<stop offset="1" stop-color="#063042"/>
</linearGradient>
<linearGradient id="paint8_linear" x1="20" y1="195.726" x2="57.2041" y2="195.726" gradientUnits="userSpaceOnUse">
<stop stop-color="#11759B"/>
<stop offset="1" stop-color="#063042"/>
</linearGradient>
<linearGradient id="paint9_linear" x1="251.492" y1="166.79" x2="263.894" y2="166.79" gradientUnits="userSpaceOnUse">
<stop stop-color="#11759B"/>
<stop offset="1" stop-color="#063042"/>
</linearGradient>
<linearGradient id="paint10_linear" x1="82.1445" y1="247.813" x2="91.1011" y2="241.061" gradientUnits="userSpaceOnUse">
<stop stop-color="#FAD96A"/>
<stop offset="0.520833" stop-color="#F3B738"/>
<stop offset="1" stop-color="#EB9100"/>
</linearGradient>
<linearGradient id="paint11_linear" x1="48.1099" y1="37.4009" x2="60.5112" y2="37.4009" gradientUnits="userSpaceOnUse">
<stop stop-color="#11759B"/>
<stop offset="1" stop-color="#063042"/>
</linearGradient>
<linearGradient id="paint12_linear" x1="201" y1="323.201" x2="213.401" y2="323.201" gradientUnits="userSpaceOnUse">
<stop stop-color="#11759B"/>
<stop offset="1" stop-color="#063042"/>
</linearGradient>
<linearGradient id="paint13_linear" x1="79.113" y1="87.0073" x2="105.983" y2="66.7517" gradientUnits="userSpaceOnUse">
<stop stop-color="#FAD96A"/>
<stop offset="0.520833" stop-color="#F3B738"/>
<stop offset="1" stop-color="#EB9100"/>
</linearGradient>
<linearGradient id="paint14_linear" x1="48.3345" y1="583.244" x2="75.2041" y2="562.988" gradientUnits="userSpaceOnUse">
<stop stop-color="#FAD96A"/>
<stop offset="0.520833" stop-color="#F3B738"/>
<stop offset="1" stop-color="#EB9100"/>
</linearGradient>
<linearGradient id="paint15_linear" x1="184.112" y1="209.368" x2="210.981" y2="189.112" gradientUnits="userSpaceOnUse">
<stop stop-color="#FAD96A"/>
<stop offset="0.520833" stop-color="#F3B738"/>
<stop offset="1" stop-color="#EB9100"/>
</linearGradient>
<linearGradient id="paint16_linear" x1="278.5" y1="554" x2="278.5" y2="517" gradientUnits="userSpaceOnUse">
<stop stop-color="#11759B"/>
<stop offset="1" stop-color="#063042"/>
</linearGradient>
<linearGradient id="paint17_linear" x1="250.067" y1="569.278" x2="229.922" y2="596" gradientUnits="userSpaceOnUse">
<stop stop-color="#FAD96A"/>
<stop offset="0.520833" stop-color="#F3B738"/>
<stop offset="1" stop-color="#EB9100"/>
</linearGradient>
</defs>
</svg>
