<svg width="768" height="271" viewBox="0 0 768 271" fill="none" xmlns="http://www.w3.org/2000/svg">
<g clip-path="url(#clip0)">
<ellipse cx="776.361" cy="121.083" rx="94.6781" ry="94.9448" fill="url(#paint0_linear)"/>
<ellipse cx="63.5" cy="248.5" rx="76.5" ry="75.5" fill="url(#paint1_linear)"/>
<rect x="427.785" y="-57.2344" width="66.6747" height="250.697" transform="rotate(-35 427.785 -57.2344)" fill="url(#paint2_linear)"/>
<path d="M290.9 274.21L153.553 356.655L154.107 120.001L227.788 204.373L290.9 274.21Z" fill="url(#paint3_linear)"/>
<rect x="-58" y="121.096" width="417.393" height="78.9429" transform="rotate(-30.0633 -58 121.096)" fill="url(#paint4_linear)"/>
<path d="M456 279.968L758.134 310.331L644.469 148L456 279.968Z" fill="url(#paint5_linear)"/>
</g>
<defs>
<linearGradient id="paint0_linear" x1="681.683" y1="121.083" x2="853.681" y2="121.083" gradientUnits="userSpaceOnUse">
<stop stop-color="#8FE5E9"/>
<stop offset="0.484375" stop-color="#45D1DF"/>
<stop offset="1" stop-color="#00BFD1"/>
</linearGradient>
<linearGradient id="paint1_linear" x1="29.5" y1="303.867" x2="138.943" y2="220.271" gradientUnits="userSpaceOnUse">
<stop stop-color="#FAD96A"/>
<stop offset="0.520833" stop-color="#F3B738"/>
<stop offset="1" stop-color="#EB9100"/>
</linearGradient>
<linearGradient id="paint2_linear" x1="446.306" y1="160.036" x2="518.907" y2="145.481" gradientUnits="userSpaceOnUse">
<stop stop-color="#FAD96A"/>
<stop offset="0.520833" stop-color="#F3B738"/>
<stop offset="1" stop-color="#EB9100"/>
</linearGradient>
<linearGradient id="paint3_linear" x1="105.369" y1="303.712" x2="212.649" y2="206.074" gradientUnits="userSpaceOnUse">
<stop stop-color="#8FE5E9"/>
<stop offset="0.484375" stop-color="#45D1DF"/>
<stop offset="1" stop-color="#00BFD1"/>
</linearGradient>
<linearGradient id="paint4_linear" x1="-58" y1="160.567" x2="359.393" y2="160.567" gradientUnits="userSpaceOnUse">
<stop stop-color="#11759B"/>
<stop offset="1" stop-color="#063042"/>
</linearGradient>
<linearGradient id="paint5_linear" x1="567.48" y1="284.55" x2="654.157" y2="165.869" gradientUnits="userSpaceOnUse">
<stop stop-color="#11759B"/>
<stop offset="1" stop-color="#063042"/>
</linearGradient>
<clipPath id="clip0">
<rect width="768" height="271" fill="white"/>
</clipPath>
</defs>
</svg>
